# xmcd
#
# Track frame offsets: 
#        150
#        4635
#        12739
#        21499
#        26948
#        37507
#        46291
#        50200
#        59967
#        70652
#        80640
#        85677
#        99019
#        106870
#        110264
#        115122
#        118206
#        125066
#        130699
#        135804
#        139971
#        153825
#        159560
#        171536
#        179028
#        196412
#        204788
#        209003
#        215352
#
# Disc length: 2980 seconds
#
# Revision: 0
# Processed by: cddbd v1.5.2PL0 Copyright (c) Steve Scherf et al.
# Submitted via: ExactAudioCopyFreeDBPlugin 1.0
#
DISCID=9f0ba21d
DTITLE=Hamper McBee - The Good Old-Fashioned way
DYEAR=1978
DGENRE=Country
TTITLE0=Black Jack Davy
TTITLE1=Wreck of the number 9
TTITLE2=Jasper jail
TTITLE3=Talk on Bill Malone
TTITLE4=Rilly Richardson's last ride
TTITLE5=Sreets of Laredo
TTITLE6=Talk on old-time songs
TTITLE7=Young Roger the miller
TTITLE8=Talk on carniaval barking
TTITLE9=Cabbagehead (Three nights drunk)
TTITLE10=Three nights drunk (the limey version)
TTITLE11=John Hardy
TTITLE12=Talk on Hot Rod Hogan
TTITLE13=Sally make water
TTITLE14=Jack of diamonds
TTITLE15=Shady grove
TTITLE16=Talk on carnival and childhood recollections
TTITLE17=The little shirt my mama made for me
TTITLE18=Talk on drinking still mash
TTITLE19=100 gallons
TTITLE20=Wauhatchie yards
TTITLE21=Talk on racing the southern
TTITLE22=Knoxville girl
TTITLE23=The devil and the farmer's wife
TTITLE24=Talk on religion and drinking on sundays
TTITLE25=Methodist pie
TTITLE26=The good old-fashioned way
TTITLE27=Wearisome farmer
TTITLE28=Dark as a dungeon
EXTD=
EXTT0=
EXTT1=
EXTT2=
EXTT3=
EXTT4=
EXTT5=
EXTT6=
EXTT7=
EXTT8=
EXTT9=
EXTT10=
EXTT11=
EXTT12=
EXTT13=
EXTT14=
EXTT15=
EXTT16=
EXTT17=
EXTT18=
EXTT19=
EXTT20=
EXTT21=
EXTT22=
EXTT23=
EXTT24=
EXTT25=
EXTT26=
EXTT27=
EXTT28=
PLAYORDER=
